<mxfile host="app.diagrams.net" modified="2023-03-22T09:37:07.918Z" agent="5.0 (Windows NT 10.0; Win64; x64) AppleWebKit/537.36 (KHTML, like Gecko) Chrome/111.0.0.0 Safari/537.36 Edg/111.0.1661.44" etag="jw3GrQlSH9s1S9SC6E3u" version="21.0.7" type="github">
  <diagram name="Page-1" id="c7558073-3199-34d8-9f00-42111426c3f3">
    <mxGraphModel dx="1116" dy="775" grid="1" gridSize="10" guides="1" tooltips="1" connect="1" arrows="1" fold="1" page="1" pageScale="1" pageWidth="826" pageHeight="1169" background="none" math="0" shadow="0">
      <root>
        <mxCell id="0" />
        <mxCell id="1" parent="0" />
        <mxCell id="E25kTCLpdvgFFOZKCK6b-1" value="BiliBili&lt;br&gt;视频服务" style="rounded=1;whiteSpace=wrap;html=1;fillColor=#e1d5e7;strokeColor=#9673a6;" vertex="1" parent="1">
          <mxGeometry x="320" y="90" width="200" height="370" as="geometry" />
        </mxCell>
        <mxCell id="JV1y3e_D9aL5zyxWiam7-99" style="edgeStyle=orthogonalEdgeStyle;orthogonalLoop=1;jettySize=auto;html=1;exitX=0;exitY=0.25;exitDx=0;exitDy=0;rounded=1;fillColor=#dae8fc;strokeColor=#6c8ebf;" parent="1" target="JV1y3e_D9aL5zyxWiam7-97" edge="1">
          <mxGeometry relative="1" as="geometry">
            <mxPoint x="320" y="182.5" as="sourcePoint" />
          </mxGeometry>
        </mxCell>
        <mxCell id="JV1y3e_D9aL5zyxWiam7-101" value="视频播放地址&lt;br&gt;视频统计数据&lt;br&gt;视频评论数据&lt;br&gt;视频推荐列表" style="edgeLabel;html=1;align=center;verticalAlign=middle;resizable=0;points=[];" parent="JV1y3e_D9aL5zyxWiam7-99" vertex="1" connectable="0">
          <mxGeometry x="0.0908" relative="1" as="geometry">
            <mxPoint x="32" as="offset" />
          </mxGeometry>
        </mxCell>
        <mxCell id="JV1y3e_D9aL5zyxWiam7-105" style="edgeStyle=orthogonalEdgeStyle;orthogonalLoop=1;jettySize=auto;html=1;exitX=1;exitY=0.25;exitDx=0;exitDy=0;rounded=1;fillColor=#dae8fc;strokeColor=#6c8ebf;" parent="1" target="JV1y3e_D9aL5zyxWiam7-102" edge="1">
          <mxGeometry relative="1" as="geometry">
            <mxPoint x="520" y="182.5" as="sourcePoint" />
          </mxGeometry>
        </mxCell>
        <mxCell id="JV1y3e_D9aL5zyxWiam7-107" value="直播视频流&lt;br&gt;房间统计数据&lt;br&gt;主播账号数据&lt;br&gt;直播互动流&lt;br&gt;直播推荐列表" style="edgeLabel;html=1;align=center;verticalAlign=middle;resizable=0;points=[];" parent="JV1y3e_D9aL5zyxWiam7-105" vertex="1" connectable="0">
          <mxGeometry x="-0.3415" relative="1" as="geometry">
            <mxPoint as="offset" />
          </mxGeometry>
        </mxCell>
        <mxCell id="JV1y3e_D9aL5zyxWiam7-113" style="edgeStyle=orthogonalEdgeStyle;orthogonalLoop=1;jettySize=auto;html=1;exitX=0;exitY=0.75;exitDx=0;exitDy=0;rounded=1;fillColor=#ffe6cc;strokeColor=#d79b00;" parent="1" target="JV1y3e_D9aL5zyxWiam7-108" edge="1">
          <mxGeometry relative="1" as="geometry">
            <mxPoint x="320" y="367.5" as="sourcePoint" />
          </mxGeometry>
        </mxCell>
        <mxCell id="JV1y3e_D9aL5zyxWiam7-115" value="视频信息&lt;br&gt;视频播放地址" style="edgeLabel;html=1;align=center;verticalAlign=middle;resizable=0;points=[];" parent="JV1y3e_D9aL5zyxWiam7-113" vertex="1" connectable="0">
          <mxGeometry x="-0.3211" relative="1" as="geometry">
            <mxPoint as="offset" />
          </mxGeometry>
        </mxCell>
        <mxCell id="JV1y3e_D9aL5zyxWiam7-118" style="edgeStyle=orthogonalEdgeStyle;orthogonalLoop=1;jettySize=auto;html=1;exitX=1;exitY=0.75;exitDx=0;exitDy=0;rounded=1;fillColor=#ffe6cc;strokeColor=#d79b00;" parent="1" target="JV1y3e_D9aL5zyxWiam7-116" edge="1">
          <mxGeometry relative="1" as="geometry">
            <mxPoint x="520" y="367.5" as="sourcePoint" />
          </mxGeometry>
        </mxCell>
        <mxCell id="JV1y3e_D9aL5zyxWiam7-120" value="直播视频流&lt;br style=&quot;border-color: var(--border-color);&quot;&gt;房间统计数据&lt;br style=&quot;border-color: var(--border-color);&quot;&gt;主播账号数据&lt;br style=&quot;border-color: var(--border-color);&quot;&gt;直播互动流&lt;br style=&quot;border-color: var(--border-color);&quot;&gt;直播推荐列表" style="edgeLabel;html=1;align=center;verticalAlign=middle;resizable=0;points=[];" parent="JV1y3e_D9aL5zyxWiam7-118" vertex="1" connectable="0">
          <mxGeometry x="-0.4795" relative="1" as="geometry">
            <mxPoint as="offset" />
          </mxGeometry>
        </mxCell>
        <mxCell id="JV1y3e_D9aL5zyxWiam7-141" style="edgeStyle=orthogonalEdgeStyle;orthogonalLoop=1;jettySize=auto;html=1;exitX=0.5;exitY=1;exitDx=0;exitDy=0;entryX=0.5;entryY=0;entryDx=0;entryDy=0;curved=1;fillColor=#f8cecc;strokeColor=#b85450;" parent="1" edge="1">
          <mxGeometry relative="1" as="geometry">
            <Array as="points">
              <mxPoint x="460" y="460" />
              <mxPoint x="460" y="861" />
            </Array>
            <mxPoint x="420" y="460" as="sourcePoint" />
            <mxPoint x="420" y="860" as="targetPoint" />
          </mxGeometry>
        </mxCell>
        <mxCell id="JV1y3e_D9aL5zyxWiam7-145" value="账号查询&lt;br&gt;账号信息&lt;br&gt;账号数据" style="edgeLabel;html=1;align=center;verticalAlign=middle;resizable=0;points=[];" parent="JV1y3e_D9aL5zyxWiam7-141" vertex="1" connectable="0">
          <mxGeometry x="0.1222" y="1" relative="1" as="geometry">
            <mxPoint y="-13" as="offset" />
          </mxGeometry>
        </mxCell>
        <mxCell id="JV1y3e_D9aL5zyxWiam7-98" style="edgeStyle=orthogonalEdgeStyle;orthogonalLoop=1;jettySize=auto;html=1;exitX=0.5;exitY=0.5;exitDx=0;exitDy=0;exitPerimeter=0;entryX=0.25;entryY=0;entryDx=0;entryDy=0;rounded=1;fillColor=#dae8fc;strokeColor=#6c8ebf;" parent="1" source="JV1y3e_D9aL5zyxWiam7-97" edge="1">
          <mxGeometry relative="1" as="geometry">
            <mxPoint x="370" y="90" as="targetPoint" />
          </mxGeometry>
        </mxCell>
        <mxCell id="JV1y3e_D9aL5zyxWiam7-100" value="视频BV&lt;br&gt;用户账号&lt;br&gt;视频播放参数" style="edgeLabel;html=1;align=center;verticalAlign=middle;resizable=0;points=[];" parent="JV1y3e_D9aL5zyxWiam7-98" vertex="1" connectable="0">
          <mxGeometry x="-0.3079" relative="1" as="geometry">
            <mxPoint as="offset" />
          </mxGeometry>
        </mxCell>
        <mxCell id="JV1y3e_D9aL5zyxWiam7-97" value="视频播放用户" style="shape=umlActor;verticalLabelPosition=bottom;verticalAlign=top;html=1;outlineConnect=0;fillColor=#dae8fc;strokeColor=#6c8ebf;" parent="1" vertex="1">
          <mxGeometry x="110" y="20" width="30" height="60" as="geometry" />
        </mxCell>
        <mxCell id="JV1y3e_D9aL5zyxWiam7-104" style="edgeStyle=orthogonalEdgeStyle;orthogonalLoop=1;jettySize=auto;html=1;exitX=0.5;exitY=0.5;exitDx=0;exitDy=0;exitPerimeter=0;entryX=0.75;entryY=0;entryDx=0;entryDy=0;rounded=1;fillColor=#dae8fc;strokeColor=#6c8ebf;" parent="1" source="JV1y3e_D9aL5zyxWiam7-102" edge="1">
          <mxGeometry relative="1" as="geometry">
            <mxPoint x="470" y="90" as="targetPoint" />
          </mxGeometry>
        </mxCell>
        <mxCell id="JV1y3e_D9aL5zyxWiam7-106" value="直播房间号&lt;br&gt;用户账号信息&lt;br&gt;互动信息发送流" style="edgeLabel;html=1;align=center;verticalAlign=middle;resizable=0;points=[];" parent="JV1y3e_D9aL5zyxWiam7-104" vertex="1" connectable="0">
          <mxGeometry x="-0.2332" y="-1" relative="1" as="geometry">
            <mxPoint as="offset" />
          </mxGeometry>
        </mxCell>
        <mxCell id="JV1y3e_D9aL5zyxWiam7-102" value="直播播放用户" style="shape=umlActor;verticalLabelPosition=bottom;verticalAlign=top;html=1;outlineConnect=0;fillColor=#dae8fc;strokeColor=#6c8ebf;" parent="1" vertex="1">
          <mxGeometry x="700" y="20" width="30" height="60" as="geometry" />
        </mxCell>
        <mxCell id="JV1y3e_D9aL5zyxWiam7-121" style="edgeStyle=orthogonalEdgeStyle;orthogonalLoop=1;jettySize=auto;html=1;exitX=0.5;exitY=0.5;exitDx=0;exitDy=0;exitPerimeter=0;entryX=0.25;entryY=1;entryDx=0;entryDy=0;rounded=1;fillColor=#ffe6cc;strokeColor=#d79b00;" parent="1" source="JV1y3e_D9aL5zyxWiam7-108" edge="1">
          <mxGeometry relative="1" as="geometry">
            <mxPoint x="370" y="460" as="targetPoint" />
          </mxGeometry>
        </mxCell>
        <mxCell id="JV1y3e_D9aL5zyxWiam7-122" value="视频编号&lt;br style=&quot;border-color: var(--border-color);&quot;&gt;审核员账号信息&lt;br style=&quot;border-color: var(--border-color);&quot;&gt;视频过审信息和评价" style="edgeLabel;html=1;align=center;verticalAlign=middle;resizable=0;points=[];" parent="JV1y3e_D9aL5zyxWiam7-121" vertex="1" connectable="0">
          <mxGeometry x="-0.0805" relative="1" as="geometry">
            <mxPoint as="offset" />
          </mxGeometry>
        </mxCell>
        <mxCell id="JV1y3e_D9aL5zyxWiam7-108" value="视频审核员" style="shape=umlActor;verticalLabelPosition=bottom;verticalAlign=top;html=1;outlineConnect=0;fillColor=#ffe6cc;strokeColor=#d79b00;" parent="1" vertex="1">
          <mxGeometry x="110" y="470" width="30" height="60" as="geometry" />
        </mxCell>
        <mxCell id="JV1y3e_D9aL5zyxWiam7-117" style="edgeStyle=orthogonalEdgeStyle;orthogonalLoop=1;jettySize=auto;html=1;exitX=0.5;exitY=0.5;exitDx=0;exitDy=0;exitPerimeter=0;entryX=0.75;entryY=1;entryDx=0;entryDy=0;rounded=1;fillColor=#ffe6cc;strokeColor=#d79b00;" parent="1" source="JV1y3e_D9aL5zyxWiam7-116" edge="1">
          <mxGeometry relative="1" as="geometry">
            <mxPoint x="470" y="460" as="targetPoint" />
          </mxGeometry>
        </mxCell>
        <mxCell id="JV1y3e_D9aL5zyxWiam7-119" value="直播间房间号&lt;br&gt;审核员账号信息&lt;br&gt;审核员审核意见" style="edgeLabel;html=1;align=center;verticalAlign=middle;resizable=0;points=[];" parent="JV1y3e_D9aL5zyxWiam7-117" vertex="1" connectable="0">
          <mxGeometry x="-0.2923" y="-1" relative="1" as="geometry">
            <mxPoint as="offset" />
          </mxGeometry>
        </mxCell>
        <mxCell id="JV1y3e_D9aL5zyxWiam7-116" value="直播审核员（超管）" style="shape=umlActor;verticalLabelPosition=bottom;verticalAlign=top;html=1;outlineConnect=0;fillColor=#ffe6cc;strokeColor=#d79b00;" parent="1" vertex="1">
          <mxGeometry x="700" y="470" width="30" height="60" as="geometry" />
        </mxCell>
        <mxCell id="JV1y3e_D9aL5zyxWiam7-130" style="edgeStyle=orthogonalEdgeStyle;rounded=1;orthogonalLoop=1;jettySize=auto;html=1;exitX=0;exitY=0.75;exitDx=0;exitDy=0;fillColor=#d5e8d4;strokeColor=#82b366;" parent="1" target="JV1y3e_D9aL5zyxWiam7-128" edge="1">
          <mxGeometry relative="1" as="geometry">
            <Array as="points">
              <mxPoint x="320" y="1040" />
              <mxPoint x="125" y="1040" />
            </Array>
            <mxPoint x="320" y="1010" as="sourcePoint" />
          </mxGeometry>
        </mxCell>
        <mxCell id="JV1y3e_D9aL5zyxWiam7-133" value="账号申诉状态&lt;br&gt;账号状态&lt;br&gt;账号信息" style="edgeLabel;html=1;align=center;verticalAlign=middle;resizable=0;points=[];" parent="JV1y3e_D9aL5zyxWiam7-130" vertex="1" connectable="0">
          <mxGeometry x="-0.2397" y="2" relative="1" as="geometry">
            <mxPoint as="offset" />
          </mxGeometry>
        </mxCell>
        <mxCell id="JV1y3e_D9aL5zyxWiam7-137" style="edgeStyle=orthogonalEdgeStyle;rounded=1;orthogonalLoop=1;jettySize=auto;html=1;exitX=1;exitY=0.75;exitDx=0;exitDy=0;fillColor=#ffe6cc;strokeColor=#d79b00;" parent="1" target="JV1y3e_D9aL5zyxWiam7-134" edge="1">
          <mxGeometry relative="1" as="geometry">
            <Array as="points">
              <mxPoint x="520" y="1040" />
              <mxPoint x="715" y="1040" />
            </Array>
            <mxPoint x="520" y="1010" as="sourcePoint" />
          </mxGeometry>
        </mxCell>
        <mxCell id="JV1y3e_D9aL5zyxWiam7-139" value="申诉账号信息&lt;br&gt;申诉原因&lt;br&gt;申诉材料&lt;br&gt;账号历史记录信息" style="edgeLabel;html=1;align=center;verticalAlign=middle;resizable=0;points=[];" parent="JV1y3e_D9aL5zyxWiam7-137" vertex="1" connectable="0">
          <mxGeometry x="0.0014" y="-2" relative="1" as="geometry">
            <mxPoint as="offset" />
          </mxGeometry>
        </mxCell>
        <mxCell id="JV1y3e_D9aL5zyxWiam7-144" style="edgeStyle=orthogonalEdgeStyle;orthogonalLoop=1;jettySize=auto;html=1;exitX=0.5;exitY=0;exitDx=0;exitDy=0;entryX=0.5;entryY=1;entryDx=0;entryDy=0;curved=1;fillColor=#f8cecc;strokeColor=#b85450;" parent="1" edge="1">
          <mxGeometry relative="1" as="geometry">
            <Array as="points">
              <mxPoint x="380" y="860" />
              <mxPoint x="380" y="460" />
            </Array>
            <mxPoint x="420" y="860" as="sourcePoint" />
            <mxPoint x="420" y="460" as="targetPoint" />
          </mxGeometry>
        </mxCell>
        <mxCell id="JV1y3e_D9aL5zyxWiam7-146" value="账号状态&lt;br&gt;账号数据&lt;br&gt;账号历史信息" style="edgeLabel;html=1;align=center;verticalAlign=middle;resizable=0;points=[];" parent="JV1y3e_D9aL5zyxWiam7-144" vertex="1" connectable="0">
          <mxGeometry x="-0.0631" relative="1" as="geometry">
            <mxPoint y="-5" as="offset" />
          </mxGeometry>
        </mxCell>
        <mxCell id="JV1y3e_D9aL5zyxWiam7-131" style="edgeStyle=orthogonalEdgeStyle;rounded=1;orthogonalLoop=1;jettySize=auto;html=1;exitX=0.5;exitY=0.5;exitDx=0;exitDy=0;exitPerimeter=0;entryX=-0.001;entryY=0.119;entryDx=0;entryDy=0;entryPerimeter=0;fillColor=#d5e8d4;strokeColor=#82b366;" parent="1" source="JV1y3e_D9aL5zyxWiam7-128" edge="1">
          <mxGeometry relative="1" as="geometry">
            <Array as="points">
              <mxPoint x="125" y="880" />
              <mxPoint x="320" y="880" />
            </Array>
            <mxPoint x="319.79999999999995" y="883.8" as="targetPoint" />
          </mxGeometry>
        </mxCell>
        <mxCell id="JV1y3e_D9aL5zyxWiam7-132" value="账号信息&lt;br&gt;申诉原因&lt;br&gt;申诉材料" style="edgeLabel;html=1;align=center;verticalAlign=middle;resizable=0;points=[];" parent="JV1y3e_D9aL5zyxWiam7-131" vertex="1" connectable="0">
          <mxGeometry x="0.4374" relative="1" as="geometry">
            <mxPoint as="offset" />
          </mxGeometry>
        </mxCell>
        <mxCell id="JV1y3e_D9aL5zyxWiam7-128" value="账号申诉用户" style="shape=umlActor;verticalLabelPosition=bottom;verticalAlign=top;html=1;outlineConnect=0;fillColor=#d5e8d4;strokeColor=#82b366;" parent="1" vertex="1">
          <mxGeometry x="110" y="930" width="30" height="60" as="geometry" />
        </mxCell>
        <mxCell id="JV1y3e_D9aL5zyxWiam7-138" style="edgeStyle=orthogonalEdgeStyle;rounded=1;orthogonalLoop=1;jettySize=auto;html=1;exitX=0.5;exitY=0;exitDx=0;exitDy=0;exitPerimeter=0;fillColor=#ffe6cc;strokeColor=#d79b00;" parent="1" source="JV1y3e_D9aL5zyxWiam7-134" edge="1">
          <mxGeometry relative="1" as="geometry">
            <mxPoint x="520" y="880" as="targetPoint" />
            <Array as="points">
              <mxPoint x="676" y="880" />
              <mxPoint x="520" y="880" />
            </Array>
          </mxGeometry>
        </mxCell>
        <mxCell id="JV1y3e_D9aL5zyxWiam7-140" value="管理员账号信息&lt;br&gt;申诉状态&lt;br&gt;申诉通过/不通过理由" style="edgeLabel;html=1;align=center;verticalAlign=middle;resizable=0;points=[];" parent="JV1y3e_D9aL5zyxWiam7-138" vertex="1" connectable="0">
          <mxGeometry x="0.1124" relative="1" as="geometry">
            <mxPoint as="offset" />
          </mxGeometry>
        </mxCell>
        <mxCell id="JV1y3e_D9aL5zyxWiam7-134" value="账号管理员" style="shape=umlActor;verticalLabelPosition=bottom;verticalAlign=top;html=1;outlineConnect=0;fillColor=#ffe6cc;strokeColor=#d79b00;" parent="1" vertex="1">
          <mxGeometry x="700" y="930" width="30" height="60" as="geometry" />
        </mxCell>
        <mxCell id="E25kTCLpdvgFFOZKCK6b-2" value="BiliBili&lt;br&gt;账号服务" style="rounded=1;whiteSpace=wrap;html=1;fillColor=#f8cecc;strokeColor=#b85450;" vertex="1" parent="1">
          <mxGeometry x="320" y="860" width="200" height="200" as="geometry" />
        </mxCell>
      </root>
    </mxGraphModel>
  </diagram>
</mxfile>
